<svg width="20" height="20" viewBox="0 0 20 20" fill="none" xmlns="http://www.w3.org/2000/svg">
<g id="Frame">
<path id="Vector" d="M11.3667 19.3222L12.2667 18.3555V15.7778H7.77783V18.3555L8.67783 19.3222C8.73159 19.3866 8.80636 19.4299 8.88894 19.4444H11.1112C11.1599 19.4427 11.2077 19.4309 11.2516 19.4099C11.2956 19.3889 11.3348 19.359 11.3667 19.3222Z" fill="#CECECE"/>
<path id="Vector_2" d="M9.99999 0.555555C9.07126 0.546185 8.15116 0.734606 7.30087 1.10829C6.45058 1.48198 5.68957 2.03238 5.06842 2.72289C4.44727 3.41341 3.98021 4.22823 3.69829 5.11319C3.41638 5.99815 3.32605 6.93299 3.43333 7.85555C3.73333 10.6 6.34444 11.8778 7.08888 15.3556C7.1162 15.4742 7.18248 15.5802 7.27714 15.6568C7.3718 15.7333 7.48939 15.7759 7.6111 15.7778H12.3889C12.5106 15.7759 12.6282 15.7333 12.7228 15.6568C12.8175 15.5802 12.8838 15.4742 12.9111 15.3556C13.6555 11.8778 16.2444 10.6 16.5667 7.85555C16.6739 6.93299 16.5836 5.99815 16.3017 5.11319C16.0198 4.22823 15.5527 3.41341 14.9316 2.72289C14.3104 2.03238 13.5494 1.48198 12.6991 1.10829C11.8488 0.734606 10.9287 0.546185 9.99999 0.555555Z" fill="url(#paint0_radial_109_189733)"/>
<path id="Vector_3" d="M12.7333 4.21111C12.3227 4.22561 11.9344 4.40201 11.6534 4.70178C11.3723 5.00156 11.2213 5.40036 11.2333 5.81111V6.66666H8.88887V5.81111C8.89331 5.60258 8.85606 5.39527 8.77932 5.20133C8.70258 5.00739 8.58788 4.83072 8.44196 4.68169C8.29604 4.53267 8.12183 4.41428 7.92954 4.33347C7.73726 4.25266 7.53078 4.21106 7.32221 4.21111C6.91155 4.22561 6.5233 4.40201 6.24226 4.70178C5.96122 5.00156 5.81021 5.40036 5.8222 5.81111C5.81015 6.22294 5.96081 6.62295 6.24157 6.9245C6.52232 7.22605 6.91056 7.40486 7.32221 7.42222H8.03332V14.0889C8.03332 14.195 8.07546 14.2967 8.15047 14.3717C8.22549 14.4467 8.32723 14.4889 8.43332 14.4889C8.5394 14.4889 8.64114 14.4467 8.71616 14.3717C8.79117 14.2967 8.83332 14.195 8.83332 14.0889V7.42222H11.2333V14.0889C11.2333 14.195 11.2755 14.2967 11.3505 14.3717C11.4255 14.4467 11.5272 14.4889 11.6333 14.4889C11.7394 14.4889 11.8411 14.4467 11.9162 14.3717C11.9912 14.2967 12.0333 14.195 12.0333 14.0889V7.42222H12.7333C12.9376 7.41505 13.1385 7.36768 13.3245 7.28281C13.5105 7.19794 13.678 7.07723 13.8173 6.9276C13.9566 6.77797 14.0651 6.60234 14.1364 6.41076C14.2078 6.21919 14.2407 6.01542 14.2333 5.81111C14.2453 5.40036 14.0943 5.00156 13.8133 4.70178C13.5322 4.40201 13.144 4.22561 12.7333 4.21111ZM8.03332 6.66666H7.27776C7.06556 6.6496 6.86825 6.55091 6.72734 6.39135C6.58643 6.23178 6.51289 6.02378 6.5222 5.81111C6.51289 5.59843 6.58643 5.39043 6.72734 5.23086C6.86825 5.0713 7.06556 4.97261 7.27776 4.95555C7.48996 4.97261 7.68727 5.0713 7.82818 5.23086C7.9691 5.39043 8.04263 5.59843 8.03332 5.81111V6.66666ZM12.7889 6.66666H12.0333V5.76666C12.0204 5.66051 12.0301 5.55281 12.0619 5.4507C12.0937 5.34859 12.1468 5.25439 12.2176 5.17432C12.2885 5.09426 12.3756 5.03016 12.4731 4.98625C12.5707 4.94235 12.6764 4.91965 12.7833 4.91965C12.8903 4.91965 12.996 4.94235 13.0935 4.98625C13.191 5.03016 13.2781 5.09426 13.349 5.17432C13.4199 5.25439 13.473 5.34859 13.5047 5.4507C13.5365 5.55281 13.5463 5.66051 13.5333 5.76666C13.5456 5.875 13.5359 5.98469 13.5048 6.08919C13.4737 6.19369 13.4218 6.29085 13.3524 6.37487C13.2829 6.45888 13.1972 6.52802 13.1003 6.57815C13.0035 6.62829 12.8976 6.65839 12.7889 6.66666Z" fill="url(#paint1_linear_109_189733)"/>
<path id="Vector_4" d="M7.73328 17.5556L12.2666 16.6778V16.1778L7.73328 17.0667V17.5556Z" fill="#999999"/>
<path id="Vector_5" d="M12.2666 17.9V17.4111L7.73328 18.3111V18.3556L8.07772 18.7333L12.2666 17.9Z" fill="#999999"/>
</g>
<defs>
<radialGradient id="paint0_radial_109_189733" cx="0" cy="0" r="1" gradientUnits="userSpaceOnUse" gradientTransform="translate(9.99999 8.16666) scale(7.13333)">
<stop stop-color="#B77AF4"/>
<stop offset="0.21" stop-color="#B378F2"/>
<stop offset="0.43" stop-color="#A672ED"/>
<stop offset="0.65" stop-color="#9267E4"/>
<stop offset="0.88" stop-color="#7559D8"/>
<stop offset="1" stop-color="#624FD0"/>
</radialGradient>
<linearGradient id="paint1_linear_109_189733" x1="10.0222" y1="4.34444" x2="10.0889" y2="12.7667" gradientUnits="userSpaceOnUse">
<stop stop-color="#F2F2F2"/>
<stop offset="0.23" stop-color="#F1F1F2" stop-opacity="0.99"/>
<stop offset="0.37" stop-color="#EDEDF1" stop-opacity="0.95"/>
<stop offset="0.48" stop-color="#E7E5F0" stop-opacity="0.89"/>
<stop offset="0.58" stop-color="#DEDBEE" stop-opacity="0.81"/>
<stop offset="0.67" stop-color="#D3CEEB" stop-opacity="0.7"/>
<stop offset="0.76" stop-color="#C4BEE8" stop-opacity="0.57"/>
<stop offset="0.84" stop-color="#B4ABE5" stop-opacity="0.41"/>
<stop offset="0.92" stop-color="#A095E1" stop-opacity="0.22"/>
<stop offset="0.99" stop-color="#8B7DDC" stop-opacity="0.02"/>
<stop offset="1" stop-color="#897BDC" stop-opacity="0"/>
</linearGradient>
</defs>
</svg>
