<svg viewBox="0 0 40 40" class="" role="presentation" focusable="false" xmlns="http://www.w3.org/2000/svg" xmlns:xlink="http://www.w3.org/1999/xlink" id="FxSymbol0-0e3" data-type="1"><g><title></title><path d="M19 19H2V2h17v17ZM5 16h11V5H5v11Zm33 3H21V2h17v17Zm-14-3h11V5H24v11Zm-5 22H2V21h17v17ZM5 35h11V24H5v11Zm33 3H21V21h17v17Zm-14-3h11V24H24v11Z" fill="url(#83f72c79-c8fc-4b4e-98d0-9a833e84260b)"></path><path d="M38 16v3H23.9v-3H38Z" fill="url(#83f72c79-c8fc-4b4e-98d0-9a833e84260c)"></path><path d="M2 19v-3h14.1v3H2Z" fill="url(#83f72c79-c8fc-4b4e-98d0-9a833e84260d)"></path><path d="M16 2h3v14h-3V2Z" fill="url(#83f72c79-c8fc-4b4e-98d0-9a833e84260e)"></path><path d="M21 2h3v14h-3V2Z" fill="url(#83f72c79-c8fc-4b4e-98d0-9a833e84260f)"></path><path d="M24 38h-3V24h3v14Z" fill="url(#83f72c79-c8fc-4b4e-98d0-9a833e842610)"></path><path d="M19 38h-3V24h3v14Z" fill="url(#83f72c79-c8fc-4b4e-98d0-9a833e842611)"></path><path d="M38 21v3H23.9v-3H38Z" fill="url(#83f72c79-c8fc-4b4e-98d0-9a833e842612)"></path><path d="M2 24v-3h14.1v3H2Z" fill="url(#83f72c79-c8fc-4b4e-98d0-9a833e842613)"></path><path d="M32 19.8c0-2.8-.8-6.3-2.2-10.4-.3.8-.8 1.5-1.2 2.1C26.3 9.3 23.3 8 20 8 13.4 8 8 13.4 8 20s5.4 12 12 12 12-5.4 12-12v-.2Z" fill="#5FB832"></path><path d="M29.7 25.4c-3 3.9-9.3 2.6-13.3 2.8 0 0-.7 0-1.4.1l.6-.2c2.8-1 4.2-1.2 5.9-2.1 3.3-1.7 6.5-5.3 7.1-9.1-1.2 3.7-5 6.8-8.4 8-2.3.9-6.6 1.7-6.6 1.7l-.2-.1c-2.9-1.4-3-7.7 2.2-9.7 2.3-.9 4.5-.4 7-1 2.7-.7 5.7-2.6 7-5.2 1.5 4.3 3.1 10.8.1 14.8Zm-16.9 3.9a1 1 0 1 0 0-2 1 1 0 0 0 0 2Z" class="msportalfx-svg-c01" fill="#ffffff"></path><defs></defs></g><defs>
<linearGradient id="83f72c79-c8fc-4b4e-98d0-9a833e84260b" x1="20" y1="2" x2="20" y2="38" gradientUnits="userSpaceOnUse"><stop stop-color="#008BF1"></stop><stop offset=".222" stop-color="#0086EC"></stop><stop offset=".494" stop-color="#0078DD"></stop><stop offset=".792" stop-color="#0061C4"></stop><stop offset="1" stop-color="#004DAE"></stop></linearGradient>
<linearGradient id="83f72c79-c8fc-4b4e-98d0-9a833e84260c" x1="23.932" y1="17.5" x2="38" y2="17.5" gradientUnits="userSpaceOnUse"><stop stop-color="#00315C"></stop><stop offset=".785" stop-color="#0080E5"></stop></linearGradient>
<linearGradient id="83f72c79-c8fc-4b4e-98d0-9a833e84260d" x1="16.068" y1="17.5" x2="2" y2="17.5" gradientUnits="userSpaceOnUse"><stop stop-color="#00315C"></stop><stop offset=".785" stop-color="#0080E5"></stop></linearGradient>
<linearGradient id="83f72c79-c8fc-4b4e-98d0-9a833e84260e" x1="17.5" y1="16" x2="17.5" y2="3.783" gradientUnits="userSpaceOnUse"><stop stop-color="#00315C"></stop><stop offset=".785" stop-color="#008AF0"></stop></linearGradient>
<linearGradient id="83f72c79-c8fc-4b4e-98d0-9a833e84260f" x1="22.5" y1="16" x2="22.5" y2="3.783" gradientUnits="userSpaceOnUse"><stop stop-color="#00315C"></stop><stop offset=".785" stop-color="#008AF0"></stop></linearGradient>
<linearGradient id="83f72c79-c8fc-4b4e-98d0-9a833e842610" x1="22.5" y1="24.404" x2="22.5" y2="38.172" gradientUnits="userSpaceOnUse"><stop stop-color="#00294F"></stop><stop offset=".704" stop-color="#005BA6"></stop><stop offset=".828" stop-color="#0457AC"></stop><stop offset="1" stop-color="#0050B2"></stop></linearGradient>
<linearGradient id="83f72c79-c8fc-4b4e-98d0-9a833e842611" x1="17.5" y1="24.404" x2="17.5" y2="38.172" gradientUnits="userSpaceOnUse"><stop stop-color="#00294F"></stop><stop offset=".704" stop-color="#005BA6"></stop><stop offset=".828" stop-color="#0457AC"></stop><stop offset="1" stop-color="#0050B2"></stop></linearGradient>
<linearGradient id="83f72c79-c8fc-4b4e-98d0-9a833e842612" x1="23.932" y1="22.5" x2="38" y2="22.5" gradientUnits="userSpaceOnUse"><stop stop-color="#00315C"></stop><stop offset=".579" stop-color="#0E71C7"></stop><stop offset="1" stop-color="#0A75D5"></stop></linearGradient>
<linearGradient id="83f72c79-c8fc-4b4e-98d0-9a833e842613" x1="16.068" y1="22.5" x2="2" y2="22.5" gradientUnits="userSpaceOnUse"><stop stop-color="#00315C"></stop><stop offset=".579" stop-color="#0E71C7"></stop><stop offset="1" stop-color="#0A75D5"></stop></linearGradient>
</defs>
</svg>