<svg viewBox="0 0 18 18" class="" role="presentation" focusable="false" xmlns="http://www.w3.org/2000/svg" xmlns:xlink="http://www.w3.org/1999/xlink" id="FxSymbol0-065" data-type="1"><g><title></title><g clip-path="url(#83f72c79-c8fc-4b4e-98d0-9a833e8420a9)"><path d="M18 16.278H0l3.332-3.149a.584.584 0 0 1 .4-.16H14.68a.588.588 0 0 1 .438.2L18 16.278Z" fill="#4FC2B1"></path><path d="M0 16.278h18v.41a.586.586 0 0 1-.586.586H.586A.586.586 0 0 1 0 16.688v-.41Z" fill="#5FE8C9"></path><path d="M17.43 8.21a3.78 3.78 0 0 0-3.29-3.64A4.77 4.77 0 0 0 9.22 0a4.91 4.91 0 0 0-4.68 3.19 4.52 4.52 0 0 0-4 4.35A4.6 4.6 0 0 0 5.32 12h8.31a3.84 3.84 0 0 0 3.8-3.79Z" fill="url(#83f72c79-c8fc-4b4e-98d0-9a833e8420a8)"></path><path d="M6.36 6.46 9 3.87a.3.3 0 0 1 .43 0L12 6.46a.13.13 0 0 1-.1.23h-1.62a.15.15 0 0 0-.14.14l-.02 5.072a.11.11 0 0 1-.11.11H8.27a.11.11 0 0 1-.11-.11l.02-5.072a.14.14 0 0 0-.13-.14h-1.6a.13.13 0 0 1-.09-.23Z" fill="#F2F2F2"></path></g><defs></defs></g><defs>
<linearGradient id="83f72c79-c8fc-4b4e-98d0-9a833e8420a8" x1="9" y1="11.95" x2="9" y2="0" gradientUnits="userSpaceOnUse"><stop stop-color="#0078D4"></stop><stop offset=".16" stop-color="#1380DA"></stop><stop offset=".53" stop-color="#3C91E5"></stop><stop offset=".82" stop-color="#559CEC"></stop><stop offset="1" stop-color="#5EA0EF"></stop></linearGradient>
<clipPath id="83f72c79-c8fc-4b4e-98d0-9a833e8420a9"><path d="M0 0h18v18H0z" class="msportalfx-svg-c01"></path></clipPath>
</defs>
</svg>