<svg width="24" height="24" viewBox="0 0 24 24" fill="none" xmlns="http://www.w3.org/2000/svg">
<g id="Frame" clip-path="url(#clip0_1248_21593)">
<path id="Vector" d="M12 0.292969C13.1016 0.292969 14.1641 0.433594 15.1875 0.714844C16.2109 0.996094 17.1641 1.40234 18.0469 1.93359C18.9297 2.46484 19.7383 3.08984 20.4727 3.80859C21.207 4.52734 21.8359 5.33594 22.3594 6.23438C22.8828 7.13281 23.2852 8.08984 23.5664 9.10547C23.8477 10.1211 23.9922 11.1836 24 12.293C24 13.582 23.8047 14.8242 23.4141 16.0195C23.0234 17.2148 22.4648 18.3125 21.7383 19.3125C21.0117 20.3125 20.1484 21.1875 19.1484 21.9375C18.1484 22.6875 17.0312 23.2695 15.7969 23.6836C15.7734 23.6914 15.7383 23.6953 15.6914 23.6953C15.6445 23.6953 15.6094 23.6992 15.5859 23.707C15.3984 23.707 15.25 23.6523 15.1406 23.543C15.0312 23.4336 14.9766 23.2891 14.9766 23.1094V21.4688C14.9766 20.9297 14.9805 20.3789 14.9883 19.8164C14.9883 19.418 14.9297 19.0156 14.8125 18.6094C14.6953 18.2031 14.4844 17.8633 14.1797 17.5898C15.0859 17.4883 15.8789 17.3047 16.5586 17.0391C17.2383 16.7734 17.8086 16.3984 18.2695 15.9141C18.7305 15.4297 19.0742 14.8438 19.3008 14.1562C19.5273 13.4688 19.6445 12.6406 19.6523 11.6719C19.6523 11.0625 19.5508 10.4883 19.3477 9.94922C19.1445 9.41016 18.8359 8.91016 18.4219 8.44922C18.5078 8.23047 18.5703 8.00391 18.6094 7.76953C18.6484 7.53516 18.668 7.30078 18.668 7.06641C18.668 6.76172 18.6367 6.46094 18.5742 6.16406C18.5117 5.86719 18.4219 5.57031 18.3047 5.27344C18.2656 5.25781 18.2227 5.25 18.1758 5.25C18.1289 5.25 18.0859 5.25 18.0469 5.25C17.7969 5.25 17.5352 5.28906 17.2617 5.36719C16.9883 5.44531 16.7188 5.54688 16.4531 5.67188C16.1875 5.79688 15.9258 5.93359 15.668 6.08203C15.4102 6.23047 15.1875 6.37109 15 6.50391C14.0234 6.23047 13.0234 6.09375 12 6.09375C10.9766 6.09375 9.97656 6.23047 9 6.50391C8.80469 6.37109 8.58203 6.23047 8.33203 6.08203C8.08203 5.93359 7.82422 5.80078 7.55859 5.68359C7.29297 5.56641 7.01953 5.46484 6.73828 5.37891C6.45703 5.29297 6.19531 5.25 5.95312 5.25H5.82422C5.77734 5.25 5.73438 5.25781 5.69531 5.27344C5.58594 5.5625 5.5 5.85547 5.4375 6.15234C5.375 6.44922 5.33984 6.75391 5.33203 7.06641C5.33203 7.30078 5.35156 7.53516 5.39062 7.76953C5.42969 8.00391 5.49219 8.23047 5.57812 8.44922C5.16406 8.90234 4.85547 9.39844 4.65234 9.9375C4.44922 10.4766 4.34766 11.0547 4.34766 11.6719C4.34766 12.625 4.46094 13.4492 4.6875 14.1445C4.91406 14.8398 5.25781 15.4258 5.71875 15.9023C6.17969 16.3789 6.75 16.7578 7.42969 17.0391C8.10938 17.3203 8.90234 17.5078 9.80859 17.6016C9.58203 17.8047 9.41016 18.0469 9.29297 18.3281C9.17578 18.6094 9.09375 18.9023 9.04688 19.207C8.83594 19.3086 8.61328 19.3867 8.37891 19.4414C8.14453 19.4961 7.91016 19.5234 7.67578 19.5234C7.17578 19.5234 6.76172 19.4062 6.43359 19.1719C6.10547 18.9375 5.8125 18.6172 5.55469 18.2109C5.46094 18.0625 5.34766 17.9141 5.21484 17.7656C5.08203 17.6172 4.9375 17.4844 4.78125 17.3672C4.625 17.25 4.45703 17.1562 4.27734 17.0859C4.09766 17.0156 3.91016 16.9766 3.71484 16.9688H3.57422C3.51172 16.9688 3.45312 16.9805 3.39844 17.0039C3.34375 17.0273 3.28906 17.0508 3.23438 17.0742C3.17969 17.0977 3.15625 17.1367 3.16406 17.1914C3.16406 17.2852 3.21875 17.375 3.32812 17.4609C3.4375 17.5469 3.52734 17.6172 3.59766 17.6719L3.63281 17.6953C3.80469 17.8281 3.95312 17.9531 4.07812 18.0703C4.20312 18.1875 4.32031 18.3164 4.42969 18.457C4.53906 18.5977 4.62891 18.7461 4.69922 18.9023C4.76953 19.0586 4.85938 19.2422 4.96875 19.4531C5.23438 20.0625 5.60547 20.5039 6.08203 20.7773C6.55859 21.0508 7.13281 21.1914 7.80469 21.1992C8.00781 21.1992 8.21094 21.1875 8.41406 21.1641C8.61719 21.1406 8.82031 21.1055 9.02344 21.0586V23.0977C9.02344 23.2852 8.96875 23.4336 8.85938 23.543C8.75 23.6523 8.59766 23.707 8.40234 23.707H8.30859C8.26953 23.707 8.23438 23.6992 8.20312 23.6836C6.97656 23.2852 5.85938 22.7109 4.85156 21.9609C3.84375 21.2109 2.98047 20.332 2.26172 19.3242C1.54297 18.3164 0.988281 17.2148 0.597656 16.0195C0.207031 14.8242 0.0078125 13.582 0 12.293C0 11.1914 0.140625 10.1289 0.421875 9.10547C0.703125 8.08203 1.10938 7.12891 1.64062 6.24609C2.17188 5.36328 2.79688 4.55469 3.51562 3.82031C4.23438 3.08594 5.04297 2.45703 5.94141 1.93359C6.83984 1.41016 7.79688 1.00781 8.8125 0.726562C9.82812 0.445312 10.8906 0.300781 12 0.292969Z" fill="#242424"/>
</g>
<defs>
<clipPath id="clip0_1248_21593">
<rect width="24" height="24" fill="white"/>
</clipPath>
</defs>
</svg>
