<svg width="274" height="275" xmlns="http://www.w3.org/2000/svg" xmlns:xlink="http://www.w3.org/1999/xlink" xml:space="preserve" overflow="hidden"><defs><clipPath id="clip0"><rect x="92" y="170" width="274" height="275"/></clipPath><clipPath id="clip1"><rect x="92" y="171" width="274" height="274"/></clipPath><clipPath id="clip2"><rect x="92" y="171" width="274" height="274"/></clipPath><clipPath id="clip3"><rect x="92" y="171" width="274" height="274"/></clipPath></defs><g clip-path="url(#clip0)" transform="translate(-92 -170)"><g clip-path="url(#clip1)"><g clip-path="url(#clip2)"><g clip-path="url(#clip3)"><path d="M160.5 283.74 297.5 283.74 297.5 300.865 160.5 300.865Z" fill="#33D4F4" fill-rule="nonzero" fill-opacity="1"/><path d="M146.229 300.865 149.083 300.865 149.083 283.74 146.229 283.74C141.377 283.74 137.667 287.45 137.667 292.302 137.667 297.154 141.377 300.865 146.229 300.865" fill="#33D4F4" fill-rule="nonzero" fill-opacity="1"/><path d="M320.333 292.302C320.333 287.45 316.623 283.74 311.771 283.74L308.917 283.74 308.917 300.865 311.771 300.865C316.623 300.865 320.333 297.154 320.333 292.302" fill="#33D4F4" fill-rule="nonzero" fill-opacity="1"/><path d="M314.625 312.281 143.375 312.281C137.096 312.281 131.958 317.419 131.958 323.698L131.958 406.469C131.958 412.748 137.096 417.885 143.375 417.885L314.625 417.885C320.904 417.885 326.042 412.748 326.042 406.469L326.042 323.698C326.042 317.419 320.904 312.281 314.625 312.281M280.375 332.26C280.375 343.392 257.256 352.24 229 352.24 200.744 352.24 177.625 343.392 177.625 332.26L280.375 332.26ZM149.083 383.635C145.944 383.635 143.375 381.067 143.375 377.927 143.375 374.788 145.944 372.219 149.083 372.219 152.223 372.219 154.792 374.788 154.792 377.927 154.792 381.067 152.223 383.635 149.083 383.635M160.5 403.615C157.36 403.615 154.792 401.046 154.792 397.906 154.792 394.767 157.36 392.198 160.5 392.198 163.64 392.198 166.208 394.767 166.208 397.906 166.208 401.046 163.64 403.615 160.5 403.615M171.917 383.635C168.777 383.635 166.208 381.067 166.208 377.927 166.208 374.788 168.777 372.219 171.917 372.219 175.056 372.219 177.625 374.788 177.625 377.927 177.625 381.067 175.056 383.635 171.917 383.635M183.333 403.615C180.194 403.615 177.625 401.046 177.625 397.906 177.625 394.767 180.194 392.198 183.333 392.198 186.473 392.198 189.042 394.767 189.042 397.906 189.042 401.046 186.473 403.615 183.333 403.615M194.75 383.635C191.61 383.635 189.042 381.067 189.042 377.927 189.042 374.788 191.61 372.219 194.75 372.219 197.89 372.219 200.458 374.788 200.458 377.927 200.458 381.067 197.89 383.635 194.75 383.635M206.167 403.615C203.027 403.615 200.458 401.046 200.458 397.906 200.458 394.767 203.027 392.198 206.167 392.198 209.306 392.198 211.875 394.767 211.875 397.906 211.875 401.046 209.306 403.615 206.167 403.615M217.583 383.635C214.444 383.635 211.875 381.067 211.875 377.927 211.875 374.788 214.444 372.219 217.583 372.219 220.723 372.219 223.292 374.788 223.292 377.927 223.292 381.067 220.723 383.635 217.583 383.635M229 403.615C225.86 403.615 223.292 401.046 223.292 397.906 223.292 394.767 225.86 392.198 229 392.198 232.14 392.198 234.708 394.767 234.708 397.906 234.708 401.046 232.14 403.615 229 403.615M240.417 383.635C237.277 383.635 234.708 381.067 234.708 377.927 234.708 374.788 237.277 372.219 240.417 372.219 243.556 372.219 246.125 374.788 246.125 377.927 246.125 381.067 243.556 383.635 240.417 383.635M251.833 403.615C248.694 403.615 246.125 401.046 246.125 397.906 246.125 394.767 248.694 392.198 251.833 392.198 254.973 392.198 257.542 394.767 257.542 397.906 257.542 401.046 254.973 403.615 251.833 403.615M263.25 383.635C260.11 383.635 257.542 381.067 257.542 377.927 257.542 374.788 260.11 372.219 263.25 372.219 266.39 372.219 268.958 374.788 268.958 377.927 268.958 381.067 266.39 383.635 263.25 383.635M274.667 403.615C271.527 403.615 268.958 401.046 268.958 397.906 268.958 394.767 271.527 392.198 274.667 392.198 277.806 392.198 280.375 394.767 280.375 397.906 280.375 401.046 277.806 403.615 274.667 403.615M286.083 383.635C282.944 383.635 280.375 381.067 280.375 377.927 280.375 374.788 282.944 372.219 286.083 372.219 289.223 372.219 291.792 374.788 291.792 377.927 291.792 381.067 289.223 383.635 286.083 383.635M297.5 403.615C294.36 403.615 291.792 401.046 291.792 397.906 291.792 394.767 294.36 392.198 297.5 392.198 300.64 392.198 303.208 394.767 303.208 397.906 303.208 401.046 300.64 403.615 297.5 403.615M308.917 383.635C305.777 383.635 303.208 381.067 303.208 377.927 303.208 374.788 305.777 372.219 308.917 372.219 312.056 372.219 314.625 374.788 314.625 377.927 314.625 381.067 312.056 383.635 308.917 383.635" fill="#33D4F4" fill-rule="nonzero" fill-opacity="1"/><path d="M171.917 209.531 246.125 209.531 246.125 252.344 286.083 252.344 286.083 269.469 297.5 269.469 297.5 235.79 262.965 198.115 160.5 198.115 160.5 269.469 171.917 269.469 171.917 209.531ZM257.542 209.531 286.083 240.927 257.542 240.927 257.542 209.531Z" fill="#33D4F4" fill-rule="nonzero" fill-opacity="1"/></g></g></g></g></svg>