<svg width="212" height="212" xmlns="http://www.w3.org/2000/svg" xmlns:xlink="http://www.w3.org/1999/xlink" xml:space="preserve" overflow="hidden"><defs><clipPath id="clip0"><rect x="668" y="208" width="212" height="212"/></clipPath><clipPath id="clip1"><rect x="669" y="209" width="210" height="210"/></clipPath><clipPath id="clip2"><rect x="669" y="209" width="210" height="210"/></clipPath><clipPath id="clip3"><rect x="669" y="209" width="210" height="210"/></clipPath></defs><g clip-path="url(#clip0)" transform="translate(-668 -208)"><g clip-path="url(#clip1)"><g clip-path="url(#clip2)"><g clip-path="url(#clip3)"><path d="M867.188 281.188 804.625 228.688 804.625 259.312C708.812 260.188 707.5 357.75 707.5 357.75 707.5 357.75 727.844 305.906 804.625 305.25L804.625 333.688 867.188 281.188Z" fill="#33D4F4" fill-rule="nonzero" fill-opacity="1"/><path d="M829.562 330.406 829.562 386.188 693.938 386.188 693.938 250.562 791.5 250.562 791.5 237.438 680.812 237.438 680.812 399.312 842.688 398.656 842.688 319.25Z" fill="#33D4F4" fill-rule="nonzero" fill-opacity="1"/></g></g></g></g></svg>