<svg width="243" height="243" xmlns="http://www.w3.org/2000/svg" xmlns:xlink="http://www.w3.org/1999/xlink" xml:space="preserve" overflow="hidden"><defs><clipPath id="clip0"><rect x="385" y="202" width="243" height="243"/></clipPath><clipPath id="clip1"><rect x="386" y="203" width="242" height="242"/></clipPath><clipPath id="clip2"><rect x="386" y="203" width="242" height="242"/></clipPath><clipPath id="clip3"><rect x="386" y="203" width="242" height="242"/></clipPath></defs><g clip-path="url(#clip0)" transform="translate(-385 -202)"><g clip-path="url(#clip1)"><g clip-path="url(#clip2)"><g clip-path="url(#clip3)"><path d="M532.208 252C531.536 252.336 530.875 252.696 530.224 253.079 517.867 260.37 511.366 274.593 513.94 288.708L532.208 288.708Z" fill="#33D4F4" fill-rule="nonzero" fill-opacity="1"/><path d="M516.231 296.271C523.798 313.58 543.964 321.478 561.274 313.911 562.512 313.37 563.717 312.756 564.883 312.071 564.914 312.051 564.944 312.029 564.974 312.011L564.974 296.271Z" fill="#33D4F4" fill-rule="nonzero" fill-opacity="1"/><path d="M517.454 231.342C517.824 231.125 518.21 230.938 518.583 230.729L474.229 230.729 474.229 288.708 488.474 288.708C486.085 265.565 497.407 243.152 517.454 231.342ZM481.792 238.292 491.875 238.292 491.875 248.375 481.792 248.375Z" fill="#33D4F4" fill-rule="nonzero" fill-opacity="1"/><path d="M564.979 340.796 564.248 339.554C558.837 341.142 553.225 341.945 547.585 341.938 532.52 341.907 518.024 336.184 507 325.916L507 354.25 564.979 354.25Z" fill="#33D4F4" fill-rule="nonzero" fill-opacity="1"/><path d="M583.608 382.987 571.173 361.812 539.771 361.812 539.771 419.792 595.229 419.792 595.229 391.952C590.343 390.577 586.178 387.365 583.608 382.987ZM557.417 379.458 547.333 379.458 547.333 369.375 557.417 369.375Z" fill="#33D4F4" fill-rule="nonzero" fill-opacity="1"/><path d="M474.229 419.792 532.208 419.792 532.208 361.812 474.229 361.812ZM481.792 369.375 491.875 369.375 491.875 379.458 481.792 379.458Z" fill="#33D4F4" fill-rule="nonzero" fill-opacity="1"/><path d="M408.688 419.792 466.667 419.792 466.667 361.812 408.688 361.812ZM416.25 369.375 426.333 369.375 426.333 379.458 416.25 379.458Z" fill="#33D4F4" fill-rule="nonzero" fill-opacity="1"/><path d="M499.438 317.375C498.338 315.863 497.282 314.305 496.327 312.676 493.321 307.569 491.099 302.038 489.735 296.271L441.458 296.271 441.458 354.25 499.438 354.25ZM459.104 313.917 449.021 313.917 449.021 303.833 459.104 303.833Z" fill="#33D4F4" fill-rule="nonzero" fill-opacity="1"/><path d="M592.267 256.306C577.784 231.598 546.015 223.309 521.307 237.792 496.6 252.274 488.311 284.044 502.793 308.752 515.936 331.173 543.646 340.403 567.608 330.34L573.976 341.179C572.264 344.823 572.46 349.076 574.5 352.546L590.13 379.141C593.617 384.916 601.126 386.77 606.902 383.282 612.578 379.854 614.483 372.524 611.194 366.766L595.564 340.171C593.528 336.704 589.913 334.462 585.902 334.179L579.534 323.34C599.935 307.317 605.372 278.692 592.267 256.306ZM511.538 303.738C499.85 283.847 506.499 258.247 526.39 246.559 546.281 234.872 571.88 241.521 583.568 261.412 595.256 281.303 588.606 306.902 568.716 318.59 568.715 318.59 568.715 318.59 568.715 318.59 548.82 330.249 523.242 323.605 511.538 303.738Z" fill="#33D4F4" fill-rule="nonzero" fill-opacity="1"/></g></g></g></g></svg>