<svg width="13" height="14" viewBox="0 0 13 14" fill="none" xmlns="http://www.w3.org/2000/svg">
<g id="Redirect" clip-path="url(#clip0_109_189669)">
<g id="Vector">
<path d="M11.6188 1.71875H8.125V0.90625H13V5.78125H12.1875V2.2875L5.6875 8.7875L5.11875 8.21875L11.6188 1.71875Z" fill="#6656d1"/>
<path d="M8.9375 7.40625V11.4688C8.95057 11.5786 8.93854 11.69 8.90233 11.7945C8.86611 11.899 8.80666 11.994 8.72844 12.0722C8.65022 12.1504 8.55527 12.2099 8.45075 12.2461C8.34622 12.2823 8.23485 12.2943 8.125 12.2812H1.625C1.51515 12.2943 1.40378 12.2823 1.29925 12.2461C1.19473 12.2099 1.09978 12.1504 1.02156 12.0722C0.94334 11.994 0.883885 11.899 0.847673 11.7945C0.811461 11.69 0.799435 11.5786 0.8125 11.4688V5.78125C0.799435 5.6714 0.811461 5.56003 0.847673 5.4555C0.883885 5.35098 0.94334 5.25603 1.02156 5.17781C1.09978 5.09959 1.19473 5.04013 1.29925 5.00392C1.40378 4.96771 1.51515 4.95568 1.625 4.96875H6.5L7.3125 4.15625H1.625C1.19402 4.15625 0.780698 4.32745 0.475951 4.6322C0.171205 4.93695 0 5.35027 0 5.78125V11.4688C0 11.8997 0.171205 12.3131 0.475951 12.6178C0.780698 12.9225 1.19402 13.0938 1.625 13.0938H8.125C8.55598 13.0938 8.9693 12.9225 9.27405 12.6178C9.57879 12.3131 9.75 11.8997 9.75 11.4688V6.59375L8.9375 7.40625Z" fill="#7160E8"/>
</g>
</g>
<defs>
<clipPath id="clip0_109_189669">
<rect width="13" height="13" fill="white" transform="translate(0 0.5)"/>
</clipPath>
</defs>
</svg>
