<svg width="50" height="50" viewBox="0 0 50 50" fill="none" xmlns="http://www.w3.org/2000/svg">
<g id="Frame">
<path id="Vector" d="M33.5173 13.3589C33.3667 13.1643 33.2035 12.9787 33.029 12.8035C32.3785 12.1511 31.5846 11.6597 30.7104 11.3684L27.84 10.4362C27.6187 10.3582 27.4271 10.2136 27.2917 10.0222C27.156 9.83089 27.0833 9.60225 27.0833 9.36783C27.0833 9.13342 27.156 8.90477 27.2917 8.71342C27.4271 8.52204 27.6187 8.37742 27.84 8.29942L29.3206 7.81856L29.3129 7.8166L30.7096 7.3625C31.2179 7.1891 31.6985 6.94746 32.1385 6.64554C32.4446 6.43448 32.731 6.19437 32.9937 5.92785C33.616 5.29633 34.0881 4.53323 34.375 3.69525L34.3987 3.62423L35.3317 0.756029C35.4098 0.534962 35.5546 0.343531 35.746 0.208124C35.9375 0.0727156 36.1662 0 36.4008 0C36.6356 0 36.8644 0.0727156 37.0558 0.208124C37.2473 0.343531 37.3921 0.534962 37.4702 0.756029L38.4031 3.62423C38.6931 4.49623 39.1827 5.2886 39.8329 5.93835C40.4833 6.58812 41.2762 7.07739 42.1489 7.36725L45.0194 8.29942L45.0767 8.31377C45.2979 8.39175 45.4896 8.5364 45.625 8.72775C45.7606 8.9191 45.8333 9.14775 45.8333 9.38216C45.8333 9.61658 45.7606 9.84523 45.625 10.0366C45.4896 10.228 45.2979 10.3726 45.0767 10.4506L42.2062 11.3827C41.8425 11.5036 41.4923 11.6592 41.1608 11.8466C41.1635 11.8498 41.166 11.8531 41.1687 11.8564C40.7021 12.1193 40.2717 12.4454 39.8904 12.8266C39.5181 13.1989 39.1985 13.6179 38.9389 14.0718L38.9337 14.065C38.7421 14.4011 38.5833 14.7563 38.4604 15.1258L37.5275 17.994C37.5192 18.0178 37.51 18.0413 37.5 18.0644C37.4177 18.2557 37.2842 18.4211 37.1133 18.5419C36.9217 18.6773 36.6929 18.75 36.4583 18.75C36.2237 18.75 35.995 18.6773 35.8033 18.5419C35.6119 18.4065 35.4671 18.215 35.3892 17.994L34.4562 15.1258C34.2454 14.4861 33.9273 13.8888 33.5173 13.3589ZM49.5477 21.2775L47.9531 20.7596C47.4683 20.5985 47.0277 20.3267 46.6665 19.9657C46.3052 19.6048 46.0331 19.1646 45.8721 18.6801L45.3537 17.0867C45.3104 16.9639 45.23 16.8575 45.1235 16.7823C45.0173 16.7071 44.8902 16.6667 44.7598 16.6667C44.6294 16.6667 44.5023 16.7071 44.3958 16.7823C44.2896 16.8575 44.2092 16.9639 44.1658 17.0867L43.6475 18.6801C43.4896 19.1612 43.2223 19.5992 42.8669 19.9599C42.6525 20.1775 42.4094 20.3635 42.1452 20.513L42.1406 20.5111L42.1375 20.5128L42.1385 20.5167C41.9667 20.6135 41.786 20.6949 41.5983 20.7596L40.0037 21.2775C39.8808 21.3208 39.7744 21.401 39.6989 21.5075C39.6237 21.6137 39.5833 21.7408 39.5833 21.871C39.5833 22.0012 39.6237 22.1283 39.6989 22.2346C39.7744 22.3408 39.8808 22.4212 40.0037 22.4646L41.5983 22.9825C42.0839 23.1444 42.525 23.4173 42.8865 23.7798C43.0508 23.9446 43.1967 24.126 43.3219 24.3204C43.4704 24.5517 43.5898 24.8017 43.6762 25.0646L44.195 26.6583C44.2094 26.6996 44.2281 26.739 44.2504 26.7758C44.2952 26.851 44.3556 26.9167 44.4279 26.9677C44.5342 27.0429 44.6612 27.0833 44.7917 27.0833C44.9221 27.0833 45.0492 27.0429 45.1554 26.9677C45.2619 26.8925 45.3423 26.786 45.3856 26.6633L45.9039 25.0698C46.0652 24.5854 46.3371 24.1452 46.6983 23.7842C47.0596 23.4233 47.5002 23.1515 47.985 22.9904L49.5796 22.4725C49.7025 22.4292 49.8089 22.349 49.8844 22.2425C49.9596 22.1362 50 22.0092 50 21.879C50 21.7487 49.9596 21.6217 49.8844 21.5154C49.8089 21.4092 49.7025 21.3287 49.5796 21.2854L49.5477 21.2775ZM43.2221 28.6708C42.9217 28.4573 42.6694 28.1865 42.4783 27.876C41.104 36.2896 33.8015 42.7106 24.9992 42.7106C15.2173 42.7106 7.2876 34.781 7.2876 24.9992C7.2876 15.2173 15.2173 7.2876 24.9992 7.2876C25.251 7.2876 25.5017 7.29285 25.7508 7.30327C26.1315 6.84979 26.6306 6.50835 27.195 6.31875L30.0304 5.39792C30.3215 5.2975 30.5985 5.16264 30.8556 4.99689C28.9977 4.45385 27.0325 4.1626 24.9992 4.1626C13.4914 4.1626 4.1626 13.4914 4.1626 24.9992C4.1626 36.5069 13.4914 45.8356 24.9992 45.8356C35.1052 45.8356 43.5308 38.641 45.4335 29.0942C45.0871 29.1787 44.7267 29.1944 44.3731 29.1392C43.9583 29.0744 43.5644 28.914 43.2221 28.6708ZM24.9992 34.3775C22.0865 34.3775 19.3968 33.0429 17.6278 30.7977C17.0937 30.12 16.1113 30.0033 15.4335 30.5375C14.7556 31.0715 14.6391 32.054 15.1731 32.7317C17.5286 35.7212 21.1185 37.5025 24.9992 37.5025C28.8744 37.5025 32.4602 35.726 34.816 32.7433C35.3508 32.066 35.2354 31.0835 34.5583 30.5487C33.881 30.0137 32.8985 30.1292 32.3635 30.8065C30.5944 33.0467 27.9079 34.3775 24.9992 34.3775ZM21.3527 20.8323C21.3527 19.3949 20.1875 18.2297 18.7501 18.2297C17.3127 18.2297 16.1474 19.3949 16.1474 20.8323C16.1474 22.2698 17.3127 23.435 18.7501 23.435C20.1875 23.435 21.3527 22.2698 21.3527 20.8323ZM33.8527 20.8323C33.8527 19.3949 32.6875 18.2297 31.25 18.2297C29.8127 18.2297 28.6475 19.3949 28.6475 20.8323C28.6475 22.2698 29.8127 23.435 31.25 23.435C32.6875 23.435 33.8527 22.2698 33.8527 20.8323Z" fill="url(#paint0_linear_125_195632)"/>
</g>
<defs>
<linearGradient id="paint0_linear_125_195632" x1="-9" y1="3.46212e-07" x2="54" y2="50" gradientUnits="userSpaceOnUse">
<stop stop-color="#2222E6"/>
<stop offset="1" stop-color="#CB96D0"/>
</linearGradient>
</defs>
</svg>
