<svg width="20" height="20" viewBox="0 0 20 20" fill="none" xmlns="http://www.w3.org/2000/svg">
<g id="Frame">
<path id="Vector" d="M3.66423 3.79482L3.72475 3.72472C3.94664 3.50282 4.29385 3.48266 4.53853 3.6642L4.60863 3.72472L10 9.11582L15.3914 3.72472C15.6355 3.48064 16.0312 3.48064 16.2753 3.72472C16.5194 3.96879 16.5194 4.36452 16.2753 4.6086L10.8842 9.99999L16.2753 15.3914C16.4972 15.6132 16.5174 15.9605 16.3358 16.2052L16.2753 16.2752C16.0534 16.4972 15.7062 16.5173 15.4615 16.3357L15.3914 16.2752L10 10.8842L4.60863 16.2752C4.36455 16.5193 3.96882 16.5193 3.72475 16.2752C3.48067 16.0312 3.48067 15.6355 3.72475 15.3914L9.11585 9.99999L3.72475 4.6086C3.50285 4.38671 3.48269 4.03949 3.66423 3.79482L3.72475 3.72472L3.66423 3.79482Z" fill="#707070"/>
</g>
</svg>
