<svg width="21" height="20" viewBox="0 0 21 20" fill="none" xmlns="http://www.w3.org/2000/svg">
<g id="Open">
<path id="Shape" d="M6.5 4C5.39543 4 4.5 4.89543 4.5 6V14C4.5 15.1046 5.39543 16 6.5 16H14.5C15.6046 16 16.5 15.1046 16.5 14V11.5C16.5 11.2239 16.7239 11 17 11C17.2761 11 17.5 11.2239 17.5 11.5V14C17.5 15.6569 16.1569 17 14.5 17H6.5C4.84315 17 3.5 15.6569 3.5 14V6C3.5 4.34315 4.84315 3 6.5 3H9C9.27614 3 9.5 3.22386 9.5 3.5C9.5 3.77614 9.27614 4 9 4H6.5ZM11.5 3.5C11.5 3.22386 11.7239 3 12 3H17C17.2761 3 17.5 3.22386 17.5 3.5V8.5C17.5 8.77614 17.2761 9 17 9C16.7239 9 16.5 8.77614 16.5 8.5V4.70711L12.3536 8.85355C12.1583 9.04882 11.8417 9.04882 11.6464 8.85355C11.4512 8.65829 11.4512 8.34171 11.6464 8.14645L15.7929 4H12C11.7239 4 11.5 3.77614 11.5 3.5Z" fill="white"/>
</g>
</svg>
