<?xml version="1.0" encoding="utf-8"?><!-- Uploaded to: SVG Repo, www.svgrepo.com, Generator: SVG Repo Mixer Tools -->
<svg width="800px" height="800px" viewBox="0 -0.2 68.549 68.549" xmlns:dc="http://purl.org/dc/elements/1.1/" xmlns:cc="http://creativecommons.org/ns#" xmlns:rdf="http://www.w3.org/1999/02/22-rdf-syntax-ns#" xmlns="http://www.w3.org/2000/svg">
    <metadata>
        <rdf:RDF>
            <cc:Work>
                <dc:subject>
                    Network
                </dc:subject>
                <dc:identifier>
                    traffic-manager
                </dc:identifier>
                <dc:title>
                    Traffic Manager
                </dc:title>
                <dc:format>
                    image/svg+xml
                </dc:format>
                <dc:publisher>
                    Amido Limited
                </dc:publisher>
                <dc:creator>
                    Richard Slater
                </dc:creator>
                <dc:type rdf:resource="http://purl.org/dc/dcmitype/StillImage"/>
            </cc:Work>
        </rdf:RDF>
    </metadata>
    <path d="m 445.41154,677.19491 -0.11663,0.0758 -13.81567,-12.17245 5.95485,-6.04846 -16.10468,-0.0978 -0.0396,15.85448 5.89758,-5.85554 13.19485,13.19477 -12.80642,12.70848 -20.08844,-19.83626 3.79205,-3.9559 -11.85089,-0.11664 0.10523,11.92668 4.04286,-4.26739 17.76458,18.2981 -0.01,0.22467 -24.39176,0.0338 -0.0752,-0.11584 -19.81607,-19.83701 0.029,-0.13565 0.15685,-28.08752 0.11664,-0.0758 6.90305,-6.85027 16.30134,15.79601 -6.85931,6.96931 21.75826,0.22385 -0.12704,-22.1886 -7.04999,7.05487 -15.84488,-15.97124 4.95659,-4.91868 0.13585,0.028 28.18105,-0.0338 0.0756,0.11584 19.81608,19.83702 -0.029,0.13564 z" fill="#00bcf2" transform="translate(-377.048 -629.019)"/>
</svg>